<?xml version="1.0" encoding="utf-8"?>
<!-- Generator: Adobe Illustrator 24.0.2, SVG Export Plug-In . SVG Version: 6.00 Build 0)  -->
<svg version="1.1" id="Capa_1" xmlns="http://www.w3.org/2000/svg" xmlns:xlink="http://www.w3.org/1999/xlink" x="0px" y="0px"
	 viewBox="0 0 119 119" style="enable-background:new 0 0 119 119;" xml:space="preserve">
<style type="text/css">
	.st0{fill-rule:evenodd;clip-rule:evenodd;fill:#FFFFFF;}
	.st1{fill-rule:evenodd;clip-rule:evenodd;fill:#EA6400;}
	.st2{fill-rule:evenodd;clip-rule:evenodd;fill:#B92163;}
	.st3{fill-rule:evenodd;clip-rule:evenodd;fill:#00C5B4;}
	.st4{fill-rule:evenodd;clip-rule:evenodd;fill:#4525D0;}
</style>
<g>
	<g transform="matrix(1.0888888835906982, 0, 0, 1.0888888835906982, -483.4017028808594, -415.55463123321533)">
		<path class="st0" d="M548.1,433.8l-14.4,9.5c0.4,1,0.6,2.2,0.6,3.4c-0.1,1.5-0.5,2.9-1.2,4.2l7,6.1l8.4-22.1L548.1,433.8z"/>
		<path class="st1" d="M517.4,451.3l-23.6,8c0,0.4,0,0.7,0,1.1c0,1.7-0.6,3.3-1.4,4.7l18.6,16.3l5.8-2.6l4.6-23.8
			C519.8,454.1,518.4,452.8,517.4,451.3z"/>
		<path class="st0" d="M476.1,463l-15.7,1.2l3.7,8.3l14.6,5.6l1.9-9.8C478.6,467.2,476.9,465.3,476.1,463z"/>
		<path class="st2" d="M501,416.9c-0.1,1.7-0.5,3.3-1.4,4.6l20.2,17.7c1.5-1.1,3.2-1.7,5.2-1.8l7.4-37.7l-1.9-0.7l-29.8,15.2
			C500.9,415.1,501,416,501,416.9z"/>
		<path class="st3" d="M493.1,425.7l-5.1,25.9c2,0.7,3.6,2.1,4.7,3.9l23.5-7.9c-0.1-0.4-0.1-0.9-0.1-1.2c0-1.5,0.5-2.9,1.1-4.2
			l-20.4-17.8C495.8,425,494.5,425.5,493.1,425.7z"/>
		<path class="st0" d="M492.1,407.6c0.2,0,0.4,0,0.6,0.1l4.2-21.3l-24.8,11l14,12.3C487.7,408.4,489.8,407.6,492.1,407.6z"/>
		<path class="st4" d="M484.1,451.1l5-25.7c-2.6-0.8-4.6-2.7-5.7-5.2l-30.4,5.6l-1.4,3.6l27.2,23.8
			C480.4,452,482.2,451.2,484.1,451.1z"/>
		<path class="st0" d="M531.6,440.1l14.9-9.9L535.3,405l-6.5,33.2C529.8,438.7,530.8,439.3,531.6,440.1z"/>
		<path class="st0" d="M498.8,410.8l26.8-13.7l-25-9.6l-4.2,21.3C497.3,409.4,498.1,410,498.8,410.8z"/>
		<path class="st0" d="M483.7,412.8l-15.5-13.6l-5.8,2.6l-7.6,19.8l28-5.1C482.9,415.1,483.2,413.9,483.7,412.8z"/>
		<path class="st0" d="M476.6,456.3l-26.3-23l-1.6,4.3l10.2,22.9l17-1.3C475.9,458.1,476.1,457.2,476.6,456.3z"/>
		<path class="st0" d="M484.6,469.2C484.5,469.2,484.5,469.2,484.6,469.2l-2.1,10.3l17.5,6.7l7.2-3.2l-17.5-15.2
			C488.2,468.7,486.5,469.2,484.6,469.2z"/>
		<path class="st0" d="M525.4,455.6l-4.2,21.2l13.7-6.1l3.7-9.9l-8-7C529.2,454.9,527.3,455.6,525.4,455.6z"/>
	</g>
</g>
</svg>
