<svg xmlns="http://www.w3.org/2000/svg" viewBox="0 0 119 119" fill-rule="evenodd"><path d="M113.418 56.805L97.738 67.15c.436 1.09.653 2.396.653 3.702a11.09 11.09 0 0 1-1.307 4.573l7.622 6.642 9.147-24.064-.436-1.198z" fill="#fff"/><path d="M79.99 75.86l-25.698 8.71v1.198c0 1.85-.653 3.593-1.524 5.118l20.253 17.75 6.316-2.83 5.01-25.916c-1.742-.98-3.267-2.396-4.356-4.03z" fill="#ea6400"/><path d="M35.018 88.6l-17.096 1.307 4.03 9.038 15.898 6.098 2.07-10.67c-2.178-1.198-4.03-3.267-4.9-5.77z" fill="#fff"/><path d="M62.132 38.403c-.11 1.85-.544 3.593-1.524 5.01l21.996 19.273c1.633-1.198 3.484-1.85 5.662-1.96l8.058-41.05-2.07-.762-32.45 16.55c.218.98.327 1.96.327 2.94z" fill="#b92163"/><path d="M53.53 47.985l-5.553 28.202c2.178.762 3.92 2.287 5.118 4.247l25.59-8.602c-.11-.436-.11-.98-.11-1.307 0-1.633.544-3.158 1.198-4.573L57.558 46.57c-1.09.653-2.504 1.198-4.03 1.416z" fill="#00c5b4"/><path d="M52.44 28.277c.218 0 .436 0 .653.11l4.573-23.193L30.663 17.17l15.244 13.393c1.742-1.416 4.03-2.287 6.533-2.287z" fill="#fff"/><path d="M43.73 75.643l5.444-27.984c-2.83-.87-5.01-2.94-6.207-5.662L9.865 48.094l-1.524 3.92L37.958 77.93c1.742-1.307 3.702-2.178 5.77-2.287z" fill="#4525d0"/><path d="M95.452 63.665l16.224-10.78-12.196-27.44-7.078 36.15c1.1.544 2.178 1.198 3.05 2.07zM59.736 31.76l29.182-14.918L61.696 6.4l-4.573 23.193c.98.653 1.85 1.307 2.613 2.178zm-16.442 2.18l-16.878-14.8-6.316 2.83-8.276 21.56 30.5-5.553c.1-1.524.436-2.83.98-4.03zm-7.73 47.365L6.925 56.26l-1.742 4.682L16.3 85.88l18.5-1.416c0-1.198.218-2.178.762-3.158zm8.71 14.047c-.1 0-.1 0 0 0l-2.287 11.216 19.056 7.296 7.84-3.484-19.056-16.55c-1.633.98-3.484 1.524-5.553 1.524zM88.7 80.543l-4.573 23.084 14.918-6.642 4.03-10.78-8.7-7.622a9.38 9.38 0 0 1-5.662 1.96z" fill="#fff"/></svg>