<?xml version="1.0" encoding="utf-8"?>
<!-- Generator: Adobe Illustrator 24.0.2, SVG Export Plug-In . SVG Version: 6.00 Build 0)  -->
<svg version="1.1" id="Capa_1" xmlns="http://www.w3.org/2000/svg" xmlns:xlink="http://www.w3.org/1999/xlink" x="0px" y="0px"
	 viewBox="0 0 112 112" style="enable-background:new 0 0 112 112;" xml:space="preserve">
<style type="text/css">
	.st0{fill-rule:evenodd;clip-rule:evenodd;fill:#FFFFFF;}
	.st1{fill-rule:evenodd;clip-rule:evenodd;fill:#4525D0;}
	.st2{fill-rule:evenodd;clip-rule:evenodd;fill:#B92163;}
	.st3{fill-rule:evenodd;clip-rule:evenodd;fill:#00C5B4;}
	.st4{fill-rule:evenodd;clip-rule:evenodd;fill:#FFB113;}
	.st5{fill-rule:evenodd;clip-rule:evenodd;fill:#EA6400;}
</style>
<g>
	<g transform="matrix(1.0888888835906982, 0, 0, 1.0888888835906982, -483.4017028808594, -415.55463123321533)">
		<path class="st0" d="M544.9,430.6l-14.4,9.5c0.4,1,0.6,2.2,0.6,3.4c-0.1,1.5-0.5,2.9-1.2,4.2l7,6.1l8.4-22.1L544.9,430.6z"/>
		<path class="st1" d="M514.2,448.1l-23.6,8c0,0.4,0,0.7,0,1.1c0,1.7-0.6,3.3-1.4,4.7l18.6,16.3l5.8-2.6l4.6-23.8
			C516.6,450.9,515.2,449.6,514.2,448.1z"/>
		<path class="st0" d="M472.9,459.8l-15.7,1.2l3.7,8.3l14.6,5.6l1.9-9.8C475.4,464,473.7,462.1,472.9,459.8z"/>
		<path class="st2" d="M497.8,413.7c-0.1,1.7-0.5,3.3-1.4,4.6l20.2,17.7c1.5-1.1,3.2-1.7,5.2-1.8l7.4-37.7l-1.9-0.7L497.5,411
			C497.7,411.9,497.8,412.8,497.8,413.7z"/>
		<path class="st3" d="M489.9,422.5l-5.1,25.9c2,0.7,3.6,2.1,4.7,3.9l23.5-7.9c-0.1-0.4-0.1-0.9-0.1-1.2c0-1.5,0.5-2.9,1.1-4.2
			l-20.4-17.8C492.6,421.8,491.3,422.3,489.9,422.5z"/>
		<path class="st0" d="M488.9,404.4c0.2,0,0.4,0,0.6,0.1l4.2-21.3l-24.8,11l14,12.3C484.5,405.2,486.6,404.4,488.9,404.4z"/>
		<path class="st4" d="M480.9,447.9l5-25.7c-2.6-0.8-4.6-2.7-5.7-5.2l-30.4,5.6l-1.4,3.6l27.2,23.8C477.2,448.8,479,448,480.9,447.9
			z"/>
		<path class="st0" d="M528.4,436.9l14.9-9.9l-11.2-25.2l-6.5,33.2C526.6,435.5,527.6,436.1,528.4,436.9z"/>
		<path class="st0" d="M495.6,407.6l26.8-13.7l-25-9.6l-4.2,21.3C494.1,406.2,494.9,406.8,495.6,407.6z"/>
		<path class="st5" d="M480.5,409.6L465,396l-5.8,2.6l-7.6,19.8l28-5.1C479.7,411.9,480,410.7,480.5,409.6z"/>
		<path class="st0" d="M473.4,453.1l-26.3-23l-1.6,4.3l10.2,22.9l17-1.3C472.7,454.9,472.9,454,473.4,453.1z"/>
		<path class="st0" d="M481.4,466C481.3,466,481.3,466,481.4,466l-2.1,10.3l17.5,6.7l7.2-3.2l-17.5-15.2
			C485,465.5,483.3,466,481.4,466z"/>
		<path class="st0" d="M522.2,452.4l-4.2,21.2l13.7-6.1l3.7-9.9l-8-7C526,451.7,524.1,452.4,522.2,452.4z"/>
	</g>
</g>
</svg>
