<?xml version="1.0" encoding="UTF-8" standalone="no"?><!-- Generator: Gravit.io --><svg xmlns="http://www.w3.org/2000/svg" xmlns:xlink="http://www.w3.org/1999/xlink" style="isolation:isolate" viewBox="0 0 350 350" width="350pt" height="350pt"><defs><clipPath id="_clipPath_8XlagyPzETUBrelUnqjC8HxIS60eFghN"><rect width="350" height="350"/></clipPath></defs><g clip-path="url(#_clipPath_8XlagyPzETUBrelUnqjC8HxIS60eFghN)"><g><path d=" M 350.296 167.94 L 299.795 201.257 C 301.197 204.764 301.899 208.972 301.899 213.181 C 301.548 218.441 300.145 223.351 297.69 227.91 L 322.24 249.303 L 351.698 171.798 L 350.296 167.94 Z " fill-rule="evenodd" fill="rgb(254,0,2)"/><path d=" M 242.63 229.313 L 159.865 257.369 C 159.865 258.772 159.865 259.824 159.865 261.227 C 159.865 267.189 157.76 272.8 154.955 277.71 L 220.185 334.874 L 240.526 325.756 L 256.658 242.289 C 251.047 239.132 246.137 234.573 242.63 229.313 Z " fill-rule="evenodd" fill="rgb(254,0,2)"/><path d=" M 97.79 270.345 L 42.73 274.553 L 55.706 303.661 L 106.909 323.301 L 113.572 288.932 C 106.558 285.074 100.596 278.411 97.79 270.345 Z " fill-rule="evenodd" fill="rgb(254,0,2)"/><path d=" M 185.115 108.672 C 184.764 114.633 183.362 120.245 180.205 124.804 L 251.047 186.878 C 256.307 183.02 262.269 180.916 269.283 180.565 L 295.235 48.351 L 288.572 45.896 L 184.063 99.203 C 184.764 102.359 185.115 105.515 185.115 108.672 Z " fill-rule="evenodd" fill="rgb(254,0,2)"/><path d=" M 157.41 139.533 L 139.524 230.365 C 146.538 232.82 152.149 237.73 156.007 244.042 L 238.422 216.337 C 238.071 214.934 238.071 213.181 238.071 212.128 C 238.071 206.868 239.825 201.958 241.929 197.399 L 170.386 134.974 C 166.879 137.078 162.32 138.832 157.41 139.533 Z " fill-rule="evenodd" fill="rgb(254,0,2)"/><path d=" M 153.903 76.056 C 154.604 76.056 155.305 76.056 156.007 76.407 L 170.736 1.708 L 83.762 40.285 L 132.861 83.421 C 138.472 78.862 145.837 76.056 153.903 76.056 Z " fill-rule="evenodd" fill="rgb(254,0,2)"/><path d=" M 125.847 228.611 L 143.382 138.481 C 134.263 135.675 127.249 129.012 123.392 120.245 L 16.778 139.884 L 11.869 152.509 L 107.259 235.976 C 112.871 231.768 119.183 228.962 125.847 228.611 Z " fill-rule="evenodd" fill="rgb(254,0,2)"/><path d=" M 292.43 190.034 L 344.684 155.315 L 305.406 66.938 L 282.61 183.371 C 286.117 185.124 289.624 187.229 292.43 190.034 Z " fill-rule="evenodd" fill="rgb(254,0,2)"/><path d=" M 177.4 87.279 L 271.388 39.233 L 183.712 5.565 L 168.983 80.265 C 172.139 82.369 174.945 84.473 177.4 87.279 Z " fill-rule="evenodd" fill="rgb(254,0,2)"/><path d=" M 124.444 94.293 L 70.085 46.597 L 49.744 55.716 L 23.091 125.154 L 121.288 107.269 C 121.638 102.359 122.69 98.15 124.444 94.293 Z " fill-rule="evenodd" fill="rgb(254,0,2)"/><path d=" M 99.544 246.848 L 7.31 166.187 L 1.698 181.267 L 37.47 261.577 L 97.089 257.018 C 97.089 253.16 97.79 250.004 99.544 246.848 Z " fill-rule="evenodd" fill="rgb(254,0,2)"/><path d=" M 127.6 292.088 C 127.249 292.088 127.249 292.088 127.6 292.088 L 120.235 328.211 L 181.608 351.708 L 206.859 340.485 L 145.486 287.179 C 140.225 290.335 134.263 292.088 127.6 292.088 Z " fill-rule="evenodd" fill="rgb(254,0,2)"/><path d=" M 270.686 244.393 L 255.957 318.742 L 304.003 297.349 L 316.979 262.629 L 288.923 238.08 C 284.013 241.938 277.35 244.393 270.686 244.393 Z " fill-rule="evenodd" fill="rgb(254,0,2)"/></g></g></svg>