<svg id="SvgjsSvg1021" width="288" height="288" xmlns="http://www.w3.org/2000/svg" version="1.1" xmlns:xlink="http://www.w3.org/1999/xlink" xmlns:svgjs="http://svgjs.com/svgjs"><defs id="SvgjsDefs1022"></defs><g id="SvgjsG1023"><svg xmlns="http://www.w3.org/2000/svg" width="288" height="288" viewBox="0 0 350 350" style="isolation:isolate"><defs><clipPath id="a"><rect width="350" height="350" fill="#ffffff" class="color000 svgShape"></rect></clipPath></defs><g clip-path="url(#a)" fill="#ffffff" class="color000 svgShape"><path fill="#ee82ee" fill-rule="evenodd" d="M350.296 167.94L299.795 201.257C301.197 204.764 301.899 208.972 301.899 213.181 301.548 218.441 300.145 223.351 297.69 227.91L322.24 249.303 351.698 171.798 350.296 167.94zM242.63 229.313L159.865 257.369C159.865 258.772 159.865 259.824 159.865 261.227 159.865 267.189 157.76 272.8 154.955 277.71L220.185 334.874 240.526 325.756 256.658 242.289C251.047 239.132 246.137 234.573 242.63 229.313zM97.79 270.345L42.73 274.553 55.706 303.661 106.909 323.301 113.572 288.932C106.558 285.074 100.596 278.411 97.79 270.345zM185.115 108.672C184.764 114.633 183.362 120.245 180.205 124.804L251.047 186.878C256.307 183.02 262.269 180.916 269.283 180.565L295.235 48.351 288.572 45.896 184.063 99.203C184.764 102.359 185.115 105.515 185.115 108.672zM157.41 139.533L139.524 230.365C146.538 232.82 152.149 237.73 156.007 244.042L238.422 216.337C238.071 214.934 238.071 213.181 238.071 212.128 238.071 206.868 239.825 201.958 241.929 197.399L170.386 134.974C166.879 137.078 162.32 138.832 157.41 139.533zM153.903 76.056C154.604 76.056 155.305 76.056 156.007 76.407L170.736 1.708 83.762 40.285 132.861 83.421C138.472 78.862 145.837 76.056 153.903 76.056zM125.847 228.611L143.382 138.481C134.263 135.675 127.249 129.012 123.392 120.245L16.778 139.884 11.869 152.509 107.259 235.976C112.871 231.768 119.183 228.962 125.847 228.611zM292.43 190.034L344.684 155.315 305.406 66.938 282.61 183.371C286.117 185.124 289.624 187.229 292.43 190.034zM177.4 87.279L271.388 39.233 183.712 5.565 168.983 80.265C172.139 82.369 174.945 84.473 177.4 87.279zM124.444 94.293L70.085 46.597 49.744 55.716 23.091 125.154 121.288 107.269C121.638 102.359 122.69 98.15 124.444 94.293zM99.544 246.848L7.31 166.187 1.698 181.267 37.47 261.577 97.089 257.018C97.089 253.16 97.79 250.004 99.544 246.848zM127.6 292.088C127.249 292.088 127.249 292.088 127.6 292.088L120.235 328.211 181.608 351.708 206.859 340.485 145.486 287.179C140.225 290.335 134.263 292.088 127.6 292.088zM270.686 244.393L255.957 318.742 304.003 297.349 316.979 262.629 288.923 238.08C284.013 241.938 277.35 244.393 270.686 244.393z" class="colorFE0002 svgShape"></path></g></svg></g></svg>