<?xml version="1.0" encoding="utf-8"?>
<!-- Generator: Adobe Illustrator 24.0.2, SVG Export Plug-In . SVG Version: 6.00 Build 0)  -->
<svg version="1.1" id="Capa_1" xmlns="http://www.w3.org/2000/svg" xmlns:xlink="http://www.w3.org/1999/xlink" x="0px" y="0px"
	 viewBox="0 0 112 112" style="enable-background:new 0 0 112 112;" xml:space="preserve">
<style type="text/css">
	.st0{fill-rule:evenodd;clip-rule:evenodd;fill:#FFFFFF;}
</style>
<path class="st0" d="M92.8,16.1L54.1,1.7L16.6,18.4l-14.9,39l16.8,38l39.1,14.9l38-16.9l14.8-39L92.8,16.1z M87.9,63.8L60.8,90.9
	c-0.4,0.4-1,0.7-1.6,0.7s-1.2-0.2-1.6-0.7c-0.9-0.9-0.9-2.3,0-3.2l23.3-23.3H25.7c-1.2,0-2.3-1-2.3-2.3s1-2.3,2.3-2.3h60.7
	c0.9,0,1.7,0.5,2.1,1.4C88.8,62.2,88.6,63.1,87.9,63.8z M86.3,52.1H25.7c-0.9,0-1.7-0.5-2.1-1.4s-0.2-1.8,0.5-2.5l27.1-27.1
	c0.9-0.9,2.3-0.9,3.2,0c0.9,0.9,0.9,2.3,0,3.2L31.1,47.6h55.2c1.2,0,2.3,1,2.3,2.3S87.6,52.1,86.3,52.1z"/>
</svg>
