<?xml version="1.0" encoding="utf-8"?>
<!-- Generator: Adobe Illustrator 24.0.2, SVG Export Plug-In . SVG Version: 6.00 Build 0)  -->
<svg version="1.1" id="Capa_1" xmlns="http://www.w3.org/2000/svg" xmlns:xlink="http://www.w3.org/1999/xlink" x="0px" y="0px"
	 viewBox="0 0 112 112" style="enable-background:new 0 0 112 112;" xml:space="preserve">
<style type="text/css">
	.st0{fill-rule:evenodd;clip-rule:evenodd;fill:#FFFFFF;}
</style>
<g>
	<path class="st0" d="M64,73V47.6c0-0.1,0-0.2,0-0.3h-5.6c0,0.1,0,0.2,0,0.3V73H64z"/>
	<path class="st0" d="M56.8,27L33.7,42.6h45.2L56.8,27z M56.3,39.4c-1.9,0-3.5-1.6-3.5-3.5s1.6-3.5,3.5-3.5c1.9,0,3.5,1.6,3.5,3.5
		S58.3,39.4,56.3,39.4z"/>
	<path class="st0" d="M53.8,73V47.6c0-0.1,0-0.2,0-0.3h-5.6c0,0.1,0,0.2,0,0.3V73H53.8z"/>
	<path class="st0" d="M74.2,73V47.6c0-0.1,0-0.2,0-0.3h-5.6c0,0.1,0,0.2,0,0.3V73H74.2z"/>
	<rect x="28" y="77.7" class="st0" width="55.9" height="3.8"/>
	<path class="st0" d="M43.6,73V47.6c0-0.1,0-0.2,0-0.3h-5.6c0,0.1,0,0.2,0,0.3V73H43.6z"/>
	<path class="st0" d="M92.8,16.1L54.1,1.7L16.6,18.4l-14.9,39l16.8,38l39.1,14.9l38-16.9l14.8-39L92.8,16.1z M88.6,83.8
		c0,1.3-1,2.3-2.3,2.3H25.7c-1.3,0-2.3-1-2.3-2.3v-8.5c0-1.3,1-2.3,2.3-2.3h7.7V47.6c0-0.1,0-0.2,0-0.3H26c-1,0-1.9-0.7-2.2-1.7
		c-0.3-1,0.1-2.1,0.9-2.6l30.7-20.7c0.8-0.5,1.9-0.5,2.7,0L87.7,43c0.8,0.6,1.2,1.6,0.9,2.6c-0.3,1-1.2,1.6-2.2,1.6h-7.4
		c0,0.1,0,0.2,0,0.3V73h7.4c1.3,0,2.3,1,2.3,2.3V83.8z"/>
</g>
</svg>
