<svg xmlns="http://www.w3.org/2000/svg" viewBox="0 0 112 112" fill-rule="evenodd" fill="#e63946"><path d="M109.934 53.32l-15.68 10.344c.436 1.1.653 2.396.653 3.702a11.09 11.09 0 0 1-1.307 4.573l7.622 6.642 9.147-24.064-.436-1.198zm-33.43 19.057l-25.698 8.7v1.198c0 1.85-.653 3.593-1.524 5.118l20.253 17.75 6.316-2.83 5-25.916c-1.742-.98-3.267-2.396-4.356-4.03zm-44.97 12.74l-17.096 1.307 4.03 9.038 15.898 6.098 2.07-10.67c-2.178-1.198-4.03-3.267-4.9-5.77zM58.647 34.92c-.1 1.85-.544 3.593-1.524 5L79.118 59.2c1.633-1.198 3.484-1.85 5.662-1.96l8.058-41.05-2.07-.762-32.45 16.55c.218.98.327 1.96.327 2.94zm-8.602 9.58l-5.553 28.202c2.178.762 3.92 2.287 5.118 4.247l25.6-8.602c-.1-.436-.1-.98-.1-1.307 0-1.633.544-3.158 1.198-4.573L54.074 43.085a11.04 11.04 0 0 1-4.03 1.416zm-1.09-19.708c.218 0 .436 0 .653.1L54.182 1.71 27.178 13.687 42.423 27.08c1.742-1.416 4.03-2.287 6.533-2.287zm-8.71 47.368l5.444-27.984c-2.83-.87-5-2.94-6.207-5.662L6.38 44.6l-1.524 3.92 29.618 25.916c1.742-1.307 3.702-2.178 5.77-2.287zm51.722-11.98L108.19 49.4 95.995 21.96 88.917 58.1c1.1.544 2.178 1.198 3.05 2.07zM56.252 28.277L85.434 13.36 58.212 2.905 53.638 26.1c.98.653 1.85 1.307 2.613 2.178zM39.8 30.454l-16.878-14.8-6.316 2.83-8.276 21.56 30.5-5.553c.1-1.524.436-2.83.98-4.03zM32.078 77.82L3.44 52.777 1.698 57.46l11.107 24.936 18.5-1.416c0-1.198.218-2.178.762-3.158zM40.8 91.868c-.1 0-.1 0 0 0l-2.287 11.216 19.056 7.296 7.84-3.484-19.056-16.55c-1.633.98-3.484 1.524-5.553 1.524zM85.216 77.06l-4.573 23.084L95.56 93.5l4.03-10.78-8.7-7.622a9.38 9.38 0 0 1-5.662 1.96z"/></svg>