<svg xmlns="http://www.w3.org/2000/svg" viewBox="0 0 308 124.1"><path d="M0 0h308v124.1H0z" fill="#fff" fill-opacity="0"/><g transform="matrix(1.028549 0 0 1.028549 -449.560211 -384.861115)"><path d="M546.9 432l-14.4 9.5c.4 1 .6 2.2.6 3.4-.1 1.5-.5 2.9-1.2 4.2l7 6.1 8.4-22.1-.4-1.1zm-30.7 17.5l-23.6 8v1.1c0 1.7-.6 3.3-1.4 4.7l18.6 16.3 5.8-2.6 4.6-23.8a11.83 11.83 0 0 1-4-3.7zm-41.3 11.7l-15.7 1.2 3.7 8.3 14.6 5.6 1.9-9.8c-2-1.1-3.7-3-4.5-5.3zm24.9-46.1c-.1 1.7-.5 3.3-1.4 4.6l20.2 17.7c1.5-1.1 3.2-1.7 5.2-1.8l7.4-37.7-1.9-.7-29.8 15.2c.2.9.3 1.8.3 2.7zm-7.9 8.8l-5.1 25.9c2 .7 3.6 2.1 4.7 3.9l23.5-7.9c-.1-.4-.1-.9-.1-1.2 0-1.5.5-2.9 1.1-4.2l-20.4-17.8c-1 .6-2.3 1.1-3.7 1.3zm-1-18.1c.2 0 .4 0 .6.1l4.2-21.3-24.8 11 14 12.3c1.6-1.3 3.7-2.1 6-2.1zm-8 43.5l5-25.7c-2.6-.8-4.6-2.7-5.7-5.2l-30.4 5.6-1.4 3.6 27.2 23.8c1.6-1.2 3.4-2 5.3-2.1zm47.5-11l14.9-9.9-11.2-25.2-6.5 33.2c1 .5 2 1.1 2.8 1.9zM497.6 409l26.8-13.7-25-9.6-4.2 21.3c.9.6 1.7 1.2 2.4 2zm-15.1 2L467 397.4l-5.8 2.6-7.6 19.8 28-5.1c.1-1.4.4-2.6.9-3.7zm-7.1 43.5l-26.3-23-1.6 4.3 10.2 22.9 17-1.3c0-1.1.2-2 .7-2.9zm8 12.9c-.1 0-.1 0 0 0l-2.1 10.3 17.5 6.7 7.2-3.2-17.5-15.2c-1.5.9-3.2 1.4-5.1 1.4zm40.8-13.6L520 475l13.7-6.1 3.7-9.9-8-7c-1.4 1.1-3.3 1.8-5.2 1.8z" fill-rule="evenodd" fill="#211338"/><path d="M598.6 438.1c0 11.3-8.4 20-19.4 20h-16v-40h16c11 0 19.4 8.7 19.4 20zm-8.8 0c0-6.9-4.3-11.2-10.6-11.2h-6.9v22.4h6.9c6.2 0 10.6-4.3 10.6-11.2zm28.1 13.2c2.3 0 4.3-.9 5.5-2.2l6.9 3.9c-2.8 3.9-7 5.9-12.5 5.9-9.8 0-15.8-6.6-15.8-15.1s6.2-15.1 15.2-15.1c8.3 0 14.5 6.5 14.5 15.1a18.7 18.7 0 0 1-.3 3.4h-20.3c1.1 3 3.7 4.1 6.8 4.1zm5.3-10.4c-.9-3.3-3.5-4.5-6.1-4.5-3.3 0-5.4 1.6-6.2 4.5h12.3zm22.8-14v7.7h14.8v8.8H646v14.7h-9.1v-40h24.3v8.8H646zm19.4-5c0-2.8 2.3-5.1 5.1-5.1s5.1 2.3 5.1 5.1-2.3 5.1-5.1 5.1-5.1-2.3-5.1-5.1zm.9 7.7h8.6v28.6h-8.6v-28.6zm43 14.3c0 .5-.1.9-.1 1.4h-25.9c.7 6.5 5.6 10.7 12.1 10.7 4.7 0 8.2-2.2 9.9-5.2l2.5 1.5c-2.3 3.9-6.8 6.5-12.5 6.5-8.8 0-15-6.3-15-14.9 0-8.4 6.1-14.9 14.8-14.9 8.8-.1 14.2 7.1 14.2 14.9zm-25.9-1.4h23c-.6-7-5.5-10.9-11.1-10.9-6.6.1-11.3 4.6-11.9 10.9zm45-13.3v2.7c-4.9 0-9.5 3-9.5 10.3v15.9H716v-28.6h2.9v5.6c1.9-4.5 5.6-5.9 9.5-5.9z" fill="#211338"/></g></svg>