<?xml version="1.0" encoding="utf-8"?>
<svg id="master-artboard" viewBox="0 0 307.9694519042969 124.0999984741211" version="1.1" xmlns="http://www.w3.org/2000/svg" x="0px" y="0px" style="enable-background:new 0 0 336 235.2;" width="307.9694519042969px" height="124.0999984741211px"><rect id="ee-background" x="0" y="0" width="307.9694519042969" height="124.0999984741211" style="fill: white; fill-opacity: 0; pointer-events: none;"/><g transform="matrix(1.0285494327545166, 0, 0, 1.0285494327545166, -449.5602111816406, -384.8611145019531)"><path class="st0" d="M546.9,432l-14.4,9.5c0.4,1,0.6,2.2,0.6,3.4c-0.1,1.5-0.5,2.9-1.2,4.2l7,6.1l8.4-22.1L546.9,432z" style="fill-rule: evenodd; clip-rule: evenodd; fill: rgb(255, 255, 255);"/><path class="st0" d="M516.2,449.5l-23.6,8c0,0.4,0,0.7,0,1.1c0,1.7-0.6,3.3-1.4,4.7l18.6,16.3l5.8-2.6l4.6-23.8&#10;&#9;C518.6,452.3,517.2,451,516.2,449.5z" style="fill-rule: evenodd; clip-rule: evenodd; fill: rgb(255, 255, 255);"/><path class="st0" d="M474.9,461.2l-15.7,1.2l3.7,8.3l14.6,5.6l1.9-9.8C477.4,465.4,475.7,463.5,474.9,461.2z" style="fill-rule: evenodd; clip-rule: evenodd; fill: rgb(255, 255, 255);"/><path class="st0" d="M499.8,415.1c-0.1,1.7-0.5,3.3-1.4,4.6l20.2,17.7c1.5-1.1,3.2-1.7,5.2-1.8l7.4-37.7l-1.9-0.7l-29.8,15.2&#10;&#9;C499.7,413.3,499.8,414.2,499.8,415.1z" style="fill-rule: evenodd; clip-rule: evenodd; fill: rgb(255, 255, 255);"/><path class="st0" d="M491.9,423.9l-5.1,25.9c2,0.7,3.6,2.1,4.7,3.9l23.5-7.9c-0.1-0.4-0.1-0.9-0.1-1.2c0-1.5,0.5-2.9,1.1-4.2&#10;&#9;l-20.4-17.8C494.6,423.2,493.3,423.7,491.9,423.9z" style="fill-rule: evenodd; clip-rule: evenodd; fill: rgb(255, 255, 255);"/><path class="st0" d="M490.9,405.8c0.2,0,0.4,0,0.6,0.1l4.2-21.3l-24.8,11l14,12.3C486.5,406.6,488.6,405.8,490.9,405.8z" style="fill-rule: evenodd; clip-rule: evenodd; fill: rgb(255, 255, 255);"/><path class="st0" d="M482.9,449.3l5-25.7c-2.6-0.8-4.6-2.7-5.7-5.2l-30.4,5.6l-1.4,3.6l27.2,23.8C479.2,450.2,481,449.4,482.9,449.3&#10;&#9;z" style="fill-rule: evenodd; clip-rule: evenodd; fill: rgb(255, 255, 255);"/><path class="st0" d="M530.4,438.3l14.9-9.9l-11.2-25.2l-6.5,33.2C528.6,436.9,529.6,437.5,530.4,438.3z" style="fill-rule: evenodd; clip-rule: evenodd; fill: rgb(255, 255, 255);"/><path class="st0" d="M497.6,409l26.8-13.7l-25-9.6l-4.2,21.3C496.1,407.6,496.9,408.2,497.6,409z" style="fill-rule: evenodd; clip-rule: evenodd; fill: rgb(255, 255, 255);"/><path class="st0" d="M482.5,411L467,397.4l-5.8,2.6l-7.6,19.8l28-5.1C481.7,413.3,482,412.1,482.5,411z" style="fill-rule: evenodd; clip-rule: evenodd; fill: rgb(255, 255, 255);"/><path class="st0" d="M475.4,454.5l-26.3-23l-1.6,4.3l10.2,22.9l17-1.3C474.7,456.3,474.9,455.4,475.4,454.5z" style="fill-rule: evenodd; clip-rule: evenodd; fill: rgb(255, 255, 255);"/><path class="st0" d="M483.4,467.4C483.3,467.4,483.3,467.4,483.4,467.4l-2.1,10.3l17.5,6.7l7.2-3.2L488.5,466&#10;&#9;C487,466.9,485.3,467.4,483.4,467.4z" style="fill-rule: evenodd; clip-rule: evenodd; fill: rgb(255, 255, 255);"/><path class="st0" d="M524.2,453.8L520,475l13.7-6.1l3.7-9.9l-8-7C528,453.1,526.1,453.8,524.2,453.8z" style="fill-rule: evenodd; clip-rule: evenodd; fill: rgb(255, 255, 255);"/><g>
	<path class="st1" d="M598.6,438.1c0,11.3-8.4,20-19.4,20h-16v-40h16C590.2,418.1,598.6,426.8,598.6,438.1z M589.8,438.1&#10;&#9;&#9;c0-6.9-4.3-11.2-10.6-11.2h-6.9v22.4h6.9C585.4,449.3,589.8,445,589.8,438.1z" style="fill: rgb(255, 255, 255);"/>
	<path class="st1" d="M617.9,451.3c2.3,0,4.3-0.9,5.5-2.2l6.9,3.9c-2.8,3.9-7,5.9-12.5,5.9c-9.8,0-15.8-6.6-15.8-15.1&#10;&#9;&#9;s6.2-15.1,15.2-15.1c8.3,0,14.5,6.5,14.5,15.1c0,1.2-0.1,2.3-0.3,3.4h-20.3C612.2,450.2,614.8,451.3,617.9,451.3z M623.2,440.9&#10;&#9;&#9;c-0.9-3.3-3.5-4.5-6.1-4.5c-3.3,0-5.4,1.6-6.2,4.5H623.2z" style="fill: rgb(255, 255, 255);"/>
	<path class="st1" d="M646,426.9v7.7h14.8v8.8H646v14.7h-9.1v-40h24.3v8.8H646z" style="fill: rgb(255, 255, 255);"/>
	<path class="st1" d="M665.4,421.9c0-2.8,2.3-5.1,5.1-5.1c2.8,0,5.1,2.3,5.1,5.1c0,2.8-2.3,5.1-5.1,5.1&#10;&#9;&#9;C667.7,427,665.4,424.7,665.4,421.9z M666.3,429.6h8.6v28.6h-8.6V429.6z" style="fill: rgb(255, 255, 255);"/>
	<path class="st1" d="M709.3,443.9c0,0.5-0.1,0.9-0.1,1.4h-25.9c0.7,6.5,5.6,10.7,12.1,10.7c4.7,0,8.2-2.2,9.9-5.2l2.5,1.5&#10;&#9;&#9;c-2.3,3.9-6.8,6.5-12.5,6.5c-8.8,0-15-6.3-15-14.9c0-8.4,6.1-14.9,14.8-14.9C703.9,428.9,709.3,436.1,709.3,443.9z M683.4,442.5h23&#10;&#9;&#9;c-0.6-7-5.5-10.9-11.1-10.9C688.7,431.7,684,436.2,683.4,442.5z" style="fill: rgb(255, 255, 255);"/>
	<path class="st1" d="M728.4,429.2v2.7c-4.9,0-9.5,3-9.5,10.3v15.9H716v-28.6h2.9v5.6C720.8,430.6,724.5,429.2,728.4,429.2z" style="fill: rgb(255, 255, 255);"/>
</g></g></svg>