<svg xmlns="http://www.w3.org/2000/svg" width="771.978" height="993.419" shape-rendering="geometricPrecision" image-rendering="optimizeQuality" fill-rule="evenodd"><path d="M0 0h771.978v993.42H0z" fill="#fff" pointer-events="none"/><g fill="#272343"><path d="M509.314 228.363V18.806H74.977c-26.866 0-48.36 22.388-49.255 49.255v869.57c0 24.18 22.388 45.673 49.255 45.673h634.938c24.18 0 45.673-21.493 45.673-45.673V277.617h-200.6c-24.18 0-45.673-22.388-45.673-49.255zm22.388 185.377l-139.704 70.748c-3.582-3.582-8.06-8.06-11.642-10.746l21.493-110.15 129.853 50.15zm-50.15 262.393L359.76 717.327c-6.27-9.85-13.433-17.015-24.18-20.597l25.97-134.33c8.06-.896 14.33-3.582 18.806-6.27l106.57 92.24c-2.687 7.164-6.27 13.433-6.27 21.493 0 1.8 0 4.478.896 6.27zm-100.3-317.02l-21.493 110.15c-.896-.896-1.8-.896-2.687-.896-11.642 0-22.388 3.582-31.344 11.642l-73.434-63.583 128.958-57.315zm-179.108 79.703l30.448-13.433 80.6 69.852c-1.8 4.478-3.582 11.642-4.478 19.702l-145.077 25.97 38.508-102.092zM155.576 562.4l157.615-29.553c6.27 13.433 15.224 23.284 29.553 26.866l-25.97 133.435c-10.746.896-19.702 4.478-25.97 10.746L148.4 580.3l7.164-17.9zm-24.18 61.792l8.955-22.388L276.473 720.9c-2.687 4.478-3.582 9.85-3.582 15.224l-88.658 7.164-52.837-119.107zm156.72 209.556l-76.12-29.553-19.702-42.986 81.494-6.27c3.582 11.642 12.538 21.493 23.284 26.866l-8.955 51.94zm110.15 42.986l-91.345-34.926 10.746-53.732c9.85 0 18.806-2.687 25.97-7.164l91.345 79.703-36.717 16.12zm57.315-25.075l-96.718-85.076c3.582-7.164 7.164-15.224 7.164-24.18v-6.27l122.7-41.195c4.478 8.06 12.538 14.33 20.597 19.702L486.03 838.225l-30.448 13.433zm123.584-55.523l-70.748 31.344L529.9 717.33c10.746 0 20.597-2.687 26.866-8.955l42.1 35.822-19.702 51.94zm70.748-187.168l-43.88 114.63-35.822-31.344c2.687-7.164 4.478-13.433 6.27-21.493 0-6.27-.896-12.538-2.687-17.9l75.225-50.15.896 6.27zm-10.746-23.284l-77.016 51.94c-3.582-3.582-8.955-8.06-15.224-9.85l34.03-172.84 58.2 130.75zM567.524 425.38L529.9 621.505c-10.746.896-19.702 3.582-26.866 9.85L397.37 540c3.582-6.27 6.27-14.33 7.164-23.284 0-3.582-.896-8.955-.896-15.224l154.928-78.808 8.955 2.687zm-10.62-187.166h200.6L546.156 18.806v208.66c0 8.955 5.373 10.746 10.746 10.746z"/><path d="M95.583 336.627l611.57-4.156v603.37L93.58 933.763l2.003-597.136z"/></g><path d="M684.417 615l-87.06 57.435c2.418 6.046 3.627 13.3 3.627 20.556-.605 9.07-3.023 17.533-7.255 25.392l42.32 36.88 50.785-133.612-2.418-6.65zM498.8 720.812l-142.68 48.366v6.65c0 10.278-3.627 19.95-8.464 28.415L460.118 902.8l35.066-15.72 27.8-143.9c-9.673-5.44-18.137-13.3-24.183-22.37zm-249.7 70.735l-94.92 7.255 22.37 50.18 88.27 33.856 11.487-59.25c-12.092-6.65-22.37-18.137-27.206-32.043z" fill="#fff"/><path d="M399.66 512.836c-.605 10.278-3.023 19.95-8.464 27.81l122.125 107.01c9.07-6.65 19.347-10.278 31.438-10.882l44.74-227.926-11.487-4.232-180.165 91.896c1.21 5.44 1.814 10.882 1.814 16.324z" fill="#b92163"/><path d="M351.898 566.04l-30.834 156.586c12.092 4.232 21.765 12.696 28.415 23.58l142.076-47.762c-.605-2.418-.605-5.44-.605-7.255 0-9.07 3.023-17.533 6.65-25.392L374.268 558.18c-6.046 3.627-13.905 6.65-22.37 7.86z" fill="#00c5b4"/><path d="M345.853 456.6c1.21 0 2.418 0 3.627.605l25.392-128.775-149.936 66.504 84.64 74.363c9.673-7.86 22.37-12.696 36.275-12.696z" fill="#fff"/><path d="M297.486 719.602l30.23-155.377c-15.72-4.837-27.81-16.324-34.46-31.438l-183.792 33.856-8.464 21.765 164.446 143.9c9.673-7.255 20.556-12.092 32.043-12.696z" fill="#4525d0"/><path d="M584.662 653.1l90.082-59.853L607.03 440.9 567.732 641.6c6.046 3.023 12.092 6.65 16.928 11.487zM386.36 475.957l162.027-82.827-151.145-58.04-25.392 128.775c5.44 3.627 10.278 7.255 14.5 12.092zm-91.292 12.093l-93.7-82.223-35.066 15.72-45.948 119.707 169.282-30.834c.605-8.464 2.418-15.72 5.44-22.37zm-42.925 263L93.138 611.987l-9.673 25.997 61.667 138.45 102.78-7.86c0-6.65 1.2-12.092 4.232-17.533zm48.367 78c-.605 0-.605 0 0 0l-12.696 62.272 105.8 40.507 43.53-19.347-105.8-91.896c-9.07 5.44-19.347 8.464-30.834 8.464zm246.668-82.222l-25.392 128.17 82.827-36.88 22.37-59.853-48.366-42.32c-8.464 6.65-19.95 10.882-31.438 10.882z" fill="#fff"/></svg>