<?xml version="1.0" encoding="utf-8"?>
<svg id="master-artboard" viewBox="0 0 771.977783203125 993.4193115234375" xmlns="http://www.w3.org/2000/svg" width="771.977783203125px" height="993.4193115234375px" version="1.1" style="shape-rendering:geometricPrecision; text-rendering:geometricPrecision; image-rendering:optimizeQuality; fill-rule:evenodd; clip-rule:evenodd"><rect id="ee-background" x="0" y="0" width="771.977783203125" height="993.4193115234375" style="fill: white; fill-opacity: 1; pointer-events: none;"/>
 
 <metadata id="CorelCorpID_0Corel-Layer"/>
<g transform="matrix(8.955397605895996, 0, 0, 8.955397605895996, -109.37887573242188, -0.0000016306344150507357)"><g>
	<path class="st0" d="M69.3,25.5V2.1H20.8c-3,0-5.4,2.5-5.5,5.5v97.1c0,2.7,2.5,5.1,5.5,5.1h70.9c2.7,0,5.1-2.4,5.1-5.1V31H74.4&#10;&#9;&#9;C71.7,31,69.3,28.5,69.3,25.5z M71.8,46.2l-15.6,7.9c-0.4-0.4-0.9-0.9-1.3-1.2l2.4-12.3L71.8,46.2z M66.2,75.5l-13.6,4.6&#10;&#9;&#9;c-0.7-1.1-1.5-1.9-2.7-2.3l2.9-15c0.9-0.1,1.6-0.4,2.1-0.7l11.9,10.3c-0.3,0.8-0.7,1.5-0.7,2.4C66.1,75,66.1,75.3,66.2,75.5z&#10;&#9;&#9; M55,40.1l-2.4,12.3c-0.1-0.1-0.2-0.1-0.3-0.1c-1.3,0-2.5,0.4-3.5,1.3l-8.2-7.1L55,40.1z M35,49l3.4-1.5l9,7.8&#10;&#9;&#9;c-0.2,0.5-0.4,1.3-0.5,2.2l-16.2,2.9L35,49z M29.8,62.8l17.6-3.3c0.7,1.5,1.7,2.6,3.3,3l-2.9,14.9c-1.2,0.1-2.2,0.5-2.9,1.2&#10;&#9;&#9;L29,64.8L29.8,62.8z M27.1,69.7l1-2.5l15.2,13.3c-0.3,0.5-0.4,1.1-0.4,1.7L33,83L27.1,69.7z M44.6,93.1l-8.5-3.3l-2.2-4.8l9.1-0.7&#10;&#9;&#9;c0.4,1.3,1.4,2.4,2.6,3L44.6,93.1z M56.9,97.9L46.7,94l1.2-6c1.1,0,2.1-0.3,2.9-0.8L61,96.1L56.9,97.9z M63.3,95.1l-10.8-9.5&#10;&#9;&#9;c0.4-0.8,0.8-1.7,0.8-2.7c0-0.2,0-0.4,0-0.7L67,77.6c0.5,0.9,1.4,1.6,2.3,2.2l-2.6,13.8L63.3,95.1z M77.1,88.9l-7.9,3.5l2.4-12.3&#10;&#9;&#9;c1.2,0,2.3-0.3,3-1l4.7,4L77.1,88.9z M85,68l-4.9,12.8l-4-3.5c0.3-0.8,0.5-1.5,0.7-2.4c0-0.7-0.1-1.4-0.3-2l8.4-5.6L85,68z&#10;&#9;&#9; M83.8,65.4l-8.6,5.8c-0.4-0.4-1-0.9-1.7-1.1l3.8-19.3L83.8,65.4z M75.8,47.5l-4.2,21.9c-1.2,0.1-2.2,0.4-3,1.1L56.8,60.3&#10;&#9;&#9;c0.4-0.7,0.7-1.6,0.8-2.6c0-0.4-0.1-1-0.1-1.7l17.3-8.8L75.8,47.5z" style="fill: rgb(39, 35, 67);" transform="matrix(1, 0, 0, 1, -0.21406861371866626, -0.00000353818654019733)"/><path class="st0" d="M74.4,26.6h22.4L73.2,2.1v23.3C73.2,26.4,73.8,26.6,74.4,26.6z" style="fill: rgb(39, 35, 67);"/>
	
</g></g><g transform="matrix(5.6619133949279785, 0, 0, 5.6619133949279785, -217.8295602742943, 66.53947162813245)"><g id="g-3" transform="matrix(1, 0, 0, 1, 0, 0)">
	<g id="g-4">
		<path class="st0" d="M58,49h100v100H58V49z" style="fill: rgb(39, 35, 67);"/>
	</g>
</g></g><g transform="matrix(5.066079139709473, 0, 0, 5.104653358459472, 95.71028805334254, 339.4024963378904)"><g>
	<path d="M -0.1 0.4 H 118.999998 V 118.599997 H -0.1 V 0.4 Z" id="ee-background_6_" class="st0" style="fill: rgb(255, 255, 255); fill-opacity: 0;"/>
	<g transform="matrix(1.0888888835906982, 0, 0, 1.0888888835906982, -483.4017028808594, -415.55463123321533)">
		<path class="st1" d="M546.9,432.4l-14.4,9.5c0.4,1,0.6,2.2,0.6,3.4c-0.1,1.5-0.5,2.9-1.2,4.2l7,6.1l8.4-22.1L546.9,432.4z" style="fill-rule: evenodd; clip-rule: evenodd; fill: rgb(255, 255, 255);"/>
		<path class="st1" d="M516.2,449.9l-23.6,8c0,0.4,0,0.7,0,1.1c0,1.7-0.6,3.3-1.4,4.7l18.6,16.3l5.8-2.6l4.6-23.8&#10;&#9;&#9;&#9;C518.6,452.7,517.2,451.4,516.2,449.9z" style="fill-rule: evenodd; clip-rule: evenodd; fill: rgb(255, 255, 255);"/>
		<path class="st1" d="M474.9,461.6l-15.7,1.2l3.7,8.3l14.6,5.6l1.9-9.8C477.4,465.8,475.7,463.9,474.9,461.6z" style="fill-rule: evenodd; clip-rule: evenodd; fill: rgb(255, 255, 255);"/>
		<path class="st2" d="M499.8,415.5c-0.1,1.7-0.5,3.3-1.4,4.6l20.2,17.7c1.5-1.1,3.2-1.7,5.2-1.8l7.4-37.7l-1.9-0.7l-29.8,15.2&#10;&#9;&#9;&#9;C499.7,413.7,499.8,414.6,499.8,415.5z" style="fill-rule: evenodd; clip-rule: evenodd; fill: rgb(207, 1, 46);"/>
		<path class="st3" d="M491.9,424.3l-5.1,25.9c2,0.7,3.6,2.1,4.7,3.9l23.5-7.9c-0.1-0.4-0.1-0.9-0.1-1.2c0-1.5,0.5-2.9,1.1-4.2&#10;&#9;&#9;&#9;L495.6,423C494.6,423.6,493.3,424.1,491.9,424.3z" style="fill-rule: evenodd; clip-rule: evenodd; fill: rgb(255, 177, 19);"/>
		<path class="st1" d="M490.9,406.2c0.2,0,0.4,0,0.6,0.1l4.2-21.3l-24.8,11l14,12.3C486.5,407,488.6,406.2,490.9,406.2z" style="fill-rule: evenodd; clip-rule: evenodd; fill: rgb(255, 255, 255);"/>
		<path class="st1" d="M482.9,449.7l5-25.7c-2.6-0.8-4.6-2.7-5.7-5.2l-30.4,5.6l-1.4,3.6l27.2,23.8&#10;&#9;&#9;&#9;C479.2,450.6,481,449.8,482.9,449.7z" style="fill-rule: evenodd; clip-rule: evenodd; fill: rgb(255, 255, 255);"/>
		<path class="st1" d="M530.4,438.7l14.9-9.9l-11.2-25.2l-6.5,33.2C528.6,437.3,529.6,437.9,530.4,438.7z" style="fill-rule: evenodd; clip-rule: evenodd; fill: rgb(255, 255, 255);"/>
		<path class="st1" d="M497.6,409.4l26.8-13.7l-25-9.6l-4.2,21.3C496.1,408,496.9,408.6,497.6,409.4z" style="fill-rule: evenodd; clip-rule: evenodd; fill: rgb(255, 255, 255);"/>
		<path class="st1" d="M482.5,411.4L467,397.8l-5.8,2.6l-7.6,19.8l28-5.1C481.7,413.7,482,412.5,482.5,411.4z" style="fill-rule: evenodd; clip-rule: evenodd; fill: rgb(255, 255, 255);"/>
		<path class="st1" d="M475.4,454.9l-26.3-23l-1.6,4.3l10.2,22.9l17-1.3C474.7,456.7,474.9,455.8,475.4,454.9z" style="fill-rule: evenodd; clip-rule: evenodd; fill: rgb(255, 255, 255);"/>
		<path class="st1" d="M483.4,467.8C483.3,467.8,483.3,467.8,483.4,467.8l-2.1,10.3l17.5,6.7l7.2-3.2l-17.5-15.2&#10;&#9;&#9;&#9;C487,467.3,485.3,467.8,483.4,467.8z" style="fill-rule: evenodd; clip-rule: evenodd; fill: rgb(255, 255, 255);"/>
		<path class="st1" d="M524.2,454.2l-4.2,21.2l13.7-6.1l3.7-9.9l-8-7C528,453.5,526.1,454.2,524.2,454.2z" style="fill-rule: evenodd; clip-rule: evenodd; fill: rgb(255, 255, 255);"/>
	</g>
</g></g><path d="M 337.33001708984375 251.75143432617188" style="fill: rgb(39, 35, 67); fill-opacity: 1; stroke: rgb(0, 0, 0); stroke-opacity: 1; stroke-width: 0; paint-order: fill;"/></svg>