<svg xmlns="http://www.w3.org/2000/svg" width="771.978" height="993.419" shape-rendering="geometricPrecision" image-rendering="optimizeQuality" fill-rule="evenodd"><path d="M0 0h771.978v993.42H0z" fill="#fff" pointer-events="none"/><g fill="#272343"><path d="M509.314 228.363V18.806H74.977c-26.866 0-48.36 22.388-49.255 49.255v869.57c0 24.18 22.388 45.673 49.255 45.673h634.938c24.18 0 45.673-21.493 45.673-45.673V277.617h-200.6c-24.18 0-45.673-22.388-45.673-49.255zm22.388 185.377l-139.704 70.748c-3.582-3.582-8.06-8.06-11.642-10.746l21.493-110.15 129.853 50.15zm-50.15 262.393L359.76 717.327c-6.27-9.85-13.433-17.015-24.18-20.597l25.97-134.33c8.06-.896 14.33-3.582 18.806-6.27l106.57 92.24c-2.687 7.164-6.27 13.433-6.27 21.493 0 1.8 0 4.478.896 6.27zm-100.3-317.02l-21.493 110.15c-.896-.896-1.8-.896-2.687-.896-11.642 0-22.388 3.582-31.344 11.642l-73.434-63.583 128.958-57.315zm-179.108 79.703l30.448-13.433 80.6 69.852c-1.8 4.478-3.582 11.642-4.478 19.702l-145.077 25.97 38.508-102.092zM155.576 562.4l157.615-29.553c6.27 13.433 15.224 23.284 29.553 26.866l-25.97 133.435c-10.746.896-19.702 4.478-25.97 10.746L148.4 580.3l7.164-17.9zm-24.18 61.792l8.955-22.388L276.473 720.9c-2.687 4.478-3.582 9.85-3.582 15.224l-88.658 7.164-52.837-119.107zm156.72 209.556l-76.12-29.553-19.702-42.986 81.494-6.27c3.582 11.642 12.538 21.493 23.284 26.866l-8.955 51.94zm110.15 42.986l-91.345-34.926 10.746-53.732c9.85 0 18.806-2.687 25.97-7.164l91.345 79.703-36.717 16.12zm57.315-25.075l-96.718-85.076c3.582-7.164 7.164-15.224 7.164-24.18v-6.27l122.7-41.195c4.478 8.06 12.538 14.33 20.597 19.702L486.03 838.225l-30.448 13.433zm123.584-55.523l-70.748 31.344L529.9 717.33c10.746 0 20.597-2.687 26.866-8.955l42.1 35.822-19.702 51.94zm70.748-187.168l-43.88 114.63-35.822-31.344c2.687-7.164 4.478-13.433 6.27-21.493 0-6.27-.896-12.538-2.687-17.9l75.225-50.15.896 6.27zm-10.746-23.284l-77.016 51.94c-3.582-3.582-8.955-8.06-15.224-9.85l34.03-172.84 58.2 130.75zM567.524 425.38L529.9 621.505c-10.746.896-19.702 3.582-26.866 9.85L397.37 540c3.582-6.27 6.27-14.33 7.164-23.284 0-3.582-.896-8.955-.896-15.224l154.928-78.808 8.955 2.687zm-10.62-187.166h200.6L546.156 18.806v208.66c0 8.955 5.373 10.746 10.746 10.746z"/><path d="M110.56 343.973h566.19v566.19H110.56v-566.19z"/></g><g transform="matrix(5.066079 0 0 5.104653 95.710288 339.402496)"><g fill="#fff"><path d="M-.1.4H119v118.2H-.1V.4z" fill-opacity="0"/><path d="M112.112 55.28l-15.68 10.344c.436 1.1.653 2.396.653 3.702a11.09 11.09 0 0 1-1.307 4.573l7.622 6.642 9.147-24.064-.436-1.198zm-33.43 19.057l-25.698 8.7v1.198c0 1.85-.653 3.593-1.524 5.118l20.253 17.75 6.316-2.83 5-25.916c-1.742-.98-3.267-2.396-4.356-4.03zm-44.97 12.74l-17.096 1.307 4.03 9.038 15.898 6.098 2.07-10.67c-2.178-1.198-4.03-3.267-4.9-5.77z"/></g><path d="M60.825 36.88c-.11 1.85-.544 3.593-1.524 5.01L81.296 61.16c1.633-1.198 3.484-1.85 5.662-1.96l8.058-41.05-2.07-.762-32.45 16.55c.218.98.327 1.96.327 2.94z" fill="#cf012e"/><path d="M52.223 46.46L46.67 74.663c2.178.762 3.92 2.287 5.118 4.247l25.59-8.602c-.11-.436-.11-.98-.11-1.307 0-1.633.544-3.158 1.198-4.573L56.252 45.045c-1.09.653-2.504 1.198-4.03 1.416z" fill="#ffb113"/><path d="M51.134 26.752c.218 0 .436 0 .653.1L56.36 3.668 29.356 15.645 44.6 29.04c1.742-1.416 4.03-2.287 6.533-2.287zm-8.71 47.368l5.444-27.984c-2.83-.87-5-2.94-6.207-5.662L8.558 46.57 7.034 50.5l29.618 25.916c1.742-1.307 3.702-2.178 5.77-2.287zm51.722-11.98l16.224-10.78-12.196-27.44-7.078 36.15c1.1.544 2.178 1.198 3.05 2.07zM58.43 30.237L87.612 15.32 60.4 4.865 55.816 28.06c.98.653 1.85 1.307 2.613 2.178zm-16.443 2.177L25.1 17.605l-6.316 2.83-8.276 21.56 30.5-5.553c.1-1.524.436-2.83.98-4.03zm-7.73 47.366L5.618 54.737 3.876 59.42l11.107 24.936 18.5-1.416c0-1.198.218-2.178.762-3.158zm8.71 14.048c-.1 0-.1 0 0 0l-2.287 11.216 19.056 7.296 7.84-3.484-19.056-16.55c-1.633.98-3.484 1.524-5.553 1.524zM87.394 79.02l-4.573 23.084 14.918-6.642 4.03-10.78-8.7-7.622a9.38 9.38 0 0 1-5.662 1.96z" fill="#fff"/></g></svg>