<?xml version="1.0" encoding="utf-8"?>
<svg id="master-artboard" viewBox="0 0 771.977783203125 993.4193115234375" xmlns="http://www.w3.org/2000/svg" width="771.977783203125px" height="993.4193115234375px" version="1.1" style="shape-rendering:geometricPrecision; text-rendering:geometricPrecision; image-rendering:optimizeQuality; fill-rule:evenodd; clip-rule:evenodd"><rect id="ee-background" x="0" y="0" width="771.977783203125" height="993.4193115234375" style="fill: white; fill-opacity: 1; pointer-events: none;"/>
 
 <metadata id="CorelCorpID_0Corel-Layer"/>
<g transform="matrix(8.955397605895996, 0, 0, 8.955397605895996, -109.37887573242188, -0.0000016306344150507357)"><g>
	<path class="st0" d="M69.3,25.5V2.1H20.8c-3,0-5.4,2.5-5.5,5.5v97.1c0,2.7,2.5,5.1,5.5,5.1h70.9c2.7,0,5.1-2.4,5.1-5.1V31H74.4&#10;&#9;&#9;C71.7,31,69.3,28.5,69.3,25.5z M71.8,46.2l-15.6,7.9c-0.4-0.4-0.9-0.9-1.3-1.2l2.4-12.3L71.8,46.2z M66.2,75.5l-13.6,4.6&#10;&#9;&#9;c-0.7-1.1-1.5-1.9-2.7-2.3l2.9-15c0.9-0.1,1.6-0.4,2.1-0.7l11.9,10.3c-0.3,0.8-0.7,1.5-0.7,2.4C66.1,75,66.1,75.3,66.2,75.5z&#10;&#9;&#9; M55,40.1l-2.4,12.3c-0.1-0.1-0.2-0.1-0.3-0.1c-1.3,0-2.5,0.4-3.5,1.3l-8.2-7.1L55,40.1z M35,49l3.4-1.5l9,7.8&#10;&#9;&#9;c-0.2,0.5-0.4,1.3-0.5,2.2l-16.2,2.9L35,49z M29.8,62.8l17.6-3.3c0.7,1.5,1.7,2.6,3.3,3l-2.9,14.9c-1.2,0.1-2.2,0.5-2.9,1.2&#10;&#9;&#9;L29,64.8L29.8,62.8z M27.1,69.7l1-2.5l15.2,13.3c-0.3,0.5-0.4,1.1-0.4,1.7L33,83L27.1,69.7z M44.6,93.1l-8.5-3.3l-2.2-4.8l9.1-0.7&#10;&#9;&#9;c0.4,1.3,1.4,2.4,2.6,3L44.6,93.1z M56.9,97.9L46.7,94l1.2-6c1.1,0,2.1-0.3,2.9-0.8L61,96.1L56.9,97.9z M63.3,95.1l-10.8-9.5&#10;&#9;&#9;c0.4-0.8,0.8-1.7,0.8-2.7c0-0.2,0-0.4,0-0.7L67,77.6c0.5,0.9,1.4,1.6,2.3,2.2l-2.6,13.8L63.3,95.1z M77.1,88.9l-7.9,3.5l2.4-12.3&#10;&#9;&#9;c1.2,0,2.3-0.3,3-1l4.7,4L77.1,88.9z M85,68l-4.9,12.8l-4-3.5c0.3-0.8,0.5-1.5,0.7-2.4c0-0.7-0.1-1.4-0.3-2l8.4-5.6L85,68z&#10;&#9;&#9; M83.8,65.4l-8.6,5.8c-0.4-0.4-1-0.9-1.7-1.1l3.8-19.3L83.8,65.4z M75.8,47.5l-4.2,21.9c-1.2,0.1-2.2,0.4-3,1.1L56.8,60.3&#10;&#9;&#9;c0.4-0.7,0.7-1.6,0.8-2.6c0-0.4-0.1-1-0.1-1.7l17.3-8.8L75.8,47.5z" style="fill: rgb(39, 35, 67);" transform="matrix(1, 0, 0, 1, -0.21406861371866626, -0.00000353818654019733)"/><path class="st0" d="M74.4,26.6h22.4L73.2,2.1v23.3C73.2,26.4,73.8,26.6,74.4,26.6z" style="fill: rgb(39, 35, 67);"/>
	
</g></g><g transform="matrix(5.815277206454629, 0, 0, 5.815277206454629, -192.48962943834562, 57.107602411966255)"><g id="g-1" transform="matrix(1, 0, 0, 1, 0, 0)">
	<g id="g-2">
		<path class="st0" d="M 52.833740234375 49.68883514404297 L 158 49 L 158 149 L 52.489322662353516 148.6555938720703 L 52.833740234375 49.68883514404297 Z" style="fill: rgb(39, 35, 67);"/>
	</g>
</g></g><g transform="matrix(5.552244186401366, 0, 0, 5.552244186401366, 62.35713815781628, 309.1970481502426)"><g>
	<g transform="matrix(1.0888888835906982, 0, 0, 1.0888888835906982, -483.4017028808594, -415.55463123321533)">
		<path class="st0" d="M548.1,433.8l-14.4,9.5c0.4,1,0.6,2.2,0.6,3.4c-0.1,1.5-0.5,2.9-1.2,4.2l7,6.1l8.4-22.1L548.1,433.8z" style="fill-rule: evenodd; clip-rule: evenodd; fill: rgb(255, 255, 255);"/>
		<path class="st1" d="M517.4,451.3l-23.6,8c0,0.4,0,0.7,0,1.1c0,1.7-0.6,3.3-1.4,4.7l18.6,16.3l5.8-2.6l4.6-23.8&#10;&#9;&#9;&#9;C519.8,454.1,518.4,452.8,517.4,451.3z" style="fill-rule: evenodd; clip-rule: evenodd; fill: rgb(69, 37, 208);"/>
		<path class="st0" d="M476.1,463l-15.7,1.2l3.7,8.3l14.6,5.6l1.9-9.8C478.6,467.2,476.9,465.3,476.1,463z" style="fill-rule: evenodd; clip-rule: evenodd; fill: rgb(255, 255, 255);"/>
		<path class="st2" d="M501,416.9c-0.1,1.7-0.5,3.3-1.4,4.6l20.2,17.7c1.5-1.1,3.2-1.7,5.2-1.8l7.4-37.7l-1.9-0.7l-29.8,15.2&#10;&#9;&#9;&#9;C500.9,415.1,501,416,501,416.9z" style="fill-rule: evenodd; clip-rule: evenodd; fill: rgb(185, 33, 99);"/>
		<path class="st3" d="M493.1,425.7l-5.1,25.9c2,0.7,3.6,2.1,4.7,3.9l23.5-7.9c-0.1-0.4-0.1-0.9-0.1-1.2c0-1.5,0.5-2.9,1.1-4.2&#10;&#9;&#9;&#9;l-20.4-17.8C495.8,425,494.5,425.5,493.1,425.7z" style="fill-rule: evenodd; clip-rule: evenodd; fill: rgb(0, 197, 180);"/>
		<path class="st0" d="M492.1,407.6c0.2,0,0.4,0,0.6,0.1l4.2-21.3l-24.8,11l14,12.3C487.7,408.4,489.8,407.6,492.1,407.6z" style="fill-rule: evenodd; clip-rule: evenodd; fill: rgb(255, 255, 255);"/>
		<path class="st4" d="M484.1,451.1l5-25.7c-2.6-0.8-4.6-2.7-5.7-5.2l-30.4,5.6l-1.4,3.6l27.2,23.8&#10;&#9;&#9;&#9;C480.4,452,482.2,451.2,484.1,451.1z" style="fill-rule: evenodd; clip-rule: evenodd; fill: rgb(255, 177, 19);"/>
		<path class="st0" d="M531.6,440.1l14.9-9.9L535.3,405l-6.5,33.2C529.8,438.7,530.8,439.3,531.6,440.1z" style="fill-rule: evenodd; clip-rule: evenodd; fill: rgb(255, 255, 255);"/>
		<path class="st0" d="M498.8,410.8l26.8-13.7l-25-9.6l-4.2,21.3C497.3,409.4,498.1,410,498.8,410.8z" style="fill-rule: evenodd; clip-rule: evenodd; fill: rgb(255, 255, 255);"/>
		<path class="st5" d="M483.7,412.8l-15.5-13.6l-5.8,2.6l-7.6,19.8l28-5.1C482.9,415.1,483.2,413.9,483.7,412.8z" style="fill-rule: evenodd; clip-rule: evenodd; fill: rgb(234, 100, 0);"/>
		<path class="st0" d="M476.6,456.3l-26.3-23l-1.6,4.3l10.2,22.9l17-1.3C475.9,458.1,476.1,457.2,476.6,456.3z" style="fill-rule: evenodd; clip-rule: evenodd; fill: rgb(255, 255, 255);"/>
		<path class="st0" d="M484.6,469.2C484.5,469.2,484.5,469.2,484.6,469.2l-2.1,10.3l17.5,6.7l7.2-3.2l-17.5-15.2&#10;&#9;&#9;&#9;C488.2,468.7,486.5,469.2,484.6,469.2z" style="fill-rule: evenodd; clip-rule: evenodd; fill: rgb(255, 255, 255);"/>
		<path class="st0" d="M525.4,455.6l-4.2,21.2l13.7-6.1l3.7-9.9l-8-7C529.2,454.9,527.3,455.6,525.4,455.6z" style="fill-rule: evenodd; clip-rule: evenodd; fill: rgb(255, 255, 255);"/>
	</g>
</g></g></svg>