<?xml version="1.0" encoding="utf-8"?>
<svg id="master-artboard" viewBox="0 0 496.5527038574219 491.2302551269531" version="1.1" xmlns="http://www.w3.org/2000/svg" x="0px" y="0px" style="enable-background:new 0 0 1400 980;" width="496.5527038574219px" height="491.2302551269531px"><rect id="ee-background" x="0" y="0" width="496.5527038574219" height="491.2302551269531" style="fill: white; fill-opacity: 0; pointer-events: none;"/><g transform="matrix(4.784688472747803, 0, 0, 4.784688472747803, 12.986065970524578, 231.46568298339844)"><g>
	<path class="st0" d="M103.4,50.4L89,59.9c0.4,1,0.6,2.2,0.6,3.4c-0.1,1.5-0.5,2.9-1.2,4.2l7,6.1l8.4-22.1L103.4,50.4z" style="fill: none; stroke: rgb(255, 255, 255); stroke-width: 1.5; stroke-miterlimit: 10;" transform="matrix(1, 0, 0, 1, -4.598001480102539, -49.741932304316045)"/>
	<path class="st0" d="M72.7,67.9l-23.6,8c0,0.4,0,0.7,0,1.1c0,1.7-0.6,3.3-1.4,4.7L66.3,98l5.8-2.6l4.6-23.8&#10;&#9;&#9;C75.2,70.7,73.7,69.4,72.7,67.9z" style="fill: none; stroke: rgb(255, 255, 255); stroke-width: 1.5; stroke-miterlimit: 10;" transform="matrix(1, 0, 0, 1, -4.598001480102539, -49.741932304316045)"/>
	<path class="st0" d="M31.5,79.6l-15.7,1.2l3.7,8.3l14.6,5.6l1.9-9.8C33.9,83.8,32.2,81.9,31.5,79.6z" style="fill: none; stroke: rgb(255, 255, 255); stroke-width: 1.5; stroke-miterlimit: 10;" transform="matrix(1, 0, 0, 1, -4.598001480102539, -49.741932304316045)"/>
	<path class="st0" d="M56.3,33.5c-0.1,1.7-0.5,3.3-1.4,4.6l20.2,17.7c1.5-1.1,3.2-1.7,5.2-1.8l7.4-37.7l-1.9-0.7L55.9,30.8&#10;&#9;&#9;C56.2,31.7,56.3,32.6,56.3,33.5z" style="fill: none; stroke: rgb(255, 255, 255); stroke-width: 1.5; stroke-miterlimit: 10;" transform="matrix(1, 0, 0, 1, -4.598001480102539, -49.741932304316045)"/>
	<path class="st0" d="M48.4,42.3l-5.1,25.9c2,0.7,3.6,2.1,4.7,3.9l23.5-7.9c-0.1-0.4-0.1-0.9-0.1-1.2c0-1.5,0.5-2.9,1.1-4.2&#10;&#9;&#9;L52.2,40.9C51.1,41.6,49.8,42.1,48.4,42.3z" style="fill: none; stroke: rgb(255, 255, 255); stroke-width: 1.5; stroke-miterlimit: 10;" transform="matrix(1, 0, 0, 1, -4.598001480102539, -49.741932304316045)"/>
	<path class="st0" d="M47.4,24.2c0.2,0,0.4,0,0.6,0.1L52.2,3L27.4,14l14,12.3C43,25,45.1,24.2,47.4,24.2z" style="fill: none; stroke: rgb(255, 255, 255); stroke-width: 1.5; stroke-miterlimit: 10;" transform="matrix(1, 0, 0, 1, -4.598001480102539, -49.741932304316045)"/>
	<path class="st0" d="M39.5,67.7l5-25.7c-2.6-0.8-4.6-2.7-5.7-5.2L8.4,42.4L7,46l27.2,23.8C35.7,68.6,37.5,67.8,39.5,67.7z" style="fill: none; stroke: rgb(255, 255, 255); stroke-width: 1.5; stroke-miterlimit: 10;" transform="matrix(1, 0, 0, 1, -4.598001480102539, -49.741932304316045)"/>
	<path class="st0" d="M86.9,56.7l14.9-9.9L90.6,21.6l-6.5,33.2C85.2,55.3,86.1,55.9,86.9,56.7z" style="fill: none; stroke: rgb(255, 255, 255); stroke-width: 1.5; stroke-miterlimit: 10;" transform="matrix(1, 0, 0, 1, -4.598001480102539, -49.741932304316045)"/>
	<path class="st0" d="M54.1,27.4l26.8-13.7l-25-9.6l-4.2,21.3C52.7,26,53.5,26.6,54.1,27.4z" style="fill: none; stroke: rgb(255, 255, 255); stroke-width: 1.5; stroke-miterlimit: 10;" transform="matrix(1, 0, 0, 1, -4.598001480102539, -49.741932304316045)"/>
	<path class="st0" d="M39,29.4L23.5,15.8l-5.8,2.6l-7.6,19.8l28-5.1C38.2,31.7,38.5,30.5,39,29.4z" style="fill: none; stroke: rgb(255, 255, 255); stroke-width: 1.5; stroke-miterlimit: 10;" transform="matrix(1, 0, 0, 1, -4.598001480102539, -49.741932304316045)"/>
	<path class="st0" d="M31.9,72.9l-26.3-23L4,54.2l10.2,22.9l17-1.3C31.2,74.7,31.5,73.8,31.9,72.9z" style="fill: none; stroke: rgb(255, 255, 255); stroke-width: 1.5; stroke-miterlimit: 10;" transform="matrix(1, 0, 0, 1, -4.598001480102539, -49.741932304316045)"/>
	<path class="st0" d="M39.9,85.8C39.9,85.8,39.8,85.8,39.9,85.8l-2.1,10.3l17.5,6.7l7.2-3.2L45.1,84.3&#10;&#9;&#9;C43.5,85.3,41.8,85.8,39.9,85.8z" style="fill: none; stroke: rgb(255, 255, 255); stroke-width: 1.5; stroke-miterlimit: 10;" transform="matrix(1, 0, 0, 1, -4.598001480102539, -49.741932304316045)"/>
	<path class="st0" d="M80.7,72.2l-4.2,21.1l13.7-6.1l3.7-9.9l-8-7C84.5,71.5,82.7,72.2,80.7,72.2z" style="fill: none; stroke: rgb(255, 255, 255); stroke-width: 1.5; stroke-miterlimit: 10;" transform="matrix(1, 0, 0, 1, -4.598001480102539, -49.741932304316045)"/>
	
	
</g></g></svg>