<svg xmlns="http://www.w3.org/2000/svg" width="496.553" height="491.23"><path d="M0 0h496.553v491.23H0z" fill="#fff" fill-opacity="0" pointer-events="none"/><path d="M485.723 234.614l-68.9 45.455c1.914 4.785 2.87 10.526 2.87 16.268-.478 7.177-2.392 13.876-5.742 20.096l33.493 29.187 40.2-105.742-1.914-5.263zm-146.9 83.732l-112.92 38.278v5.263c0 8.134-2.87 15.8-6.7 22.488l88.995 78 27.75-12.44 22-113.876c-7.177-4.306-14.354-10.526-19.14-17.703zm-197.13 55.98l-75.12 5.742 17.703 39.713 69.856 26.794 9.1-46.9c-10.048-5.263-18.182-14.354-21.53-25.36zm118.66-220.574c-.478 8.134-2.392 15.8-6.7 22l96.65 84.7c7.177-5.263 15.3-8.134 24.88-8.612L410.6 71.448l-9.1-3.35-143.062 72.727c1.435 4.306 1.914 8.612 1.914 12.92zm-37.8 42.105L198.163 319.78c9.57 3.35 17.225 10.048 22.488 18.66l112.44-37.8c-.478-1.914-.478-4.306-.478-5.742 0-7.177 2.392-13.876 5.263-20.096l-97.13-85.646c-5.263 3.35-11.483 5.742-18.182 6.7zm-4.785-86.603c.957 0 1.914 0 2.87.478L240.747 7.82l-118.66 52.63 66.986 58.852c7.656-6.22 17.703-10.048 28.708-10.048zM179.98 317.4l23.923-122.966c-12.44-3.828-22-12.92-27.273-24.88L31.177 196.337l-6.7 17.225L154.62 327.438c7.177-5.742 15.8-9.57 25.36-10.048zm226.795-52.632l71.292-47.368-53.6-120.574-31.1 158.852c5.263 2.392 9.57 5.263 13.397 9.1zM249.838 124.566l128.23-65.55L258.45 13.083l-20.096 101.914c4.785 2.87 8.612 5.742 11.483 9.57zm-72.248 9.57l-74.163-65.072-27.75 12.44L39.3 176.24l133.97-24.402c.478-6.7 1.914-12.44 4.306-17.703zM143.618 342.27L17.78 232.222l-7.656 20.574 48.804 109.57 81.34-6.22c0-5.263 1.435-9.57 3.35-13.876zm38.277 61.722s-.478 0 0 0l-10.048 49.282 83.732 32.057 34.45-15.3-83.254-73.206c-7.656 4.785-15.8 7.177-24.88 7.177zM377.1 338.92l-20.096 100.957 65.55-29.187 17.703-47.368-38.278-33.493c-6.7 5.742-15.3 9.1-24.88 9.1z" fill="none" stroke="#fff" stroke-miterlimit="10" stroke-width="7.177"/></svg>