<?xml version="1.0" encoding="utf-8"?>
<!-- Generator: Adobe Illustrator 24.0.2, SVG Export Plug-In . SVG Version: 6.00 Build 0)  -->
<svg version="1.1" id="Capa_1" xmlns="http://www.w3.org/2000/svg" xmlns:xlink="http://www.w3.org/1999/xlink" x="0px" y="0px"
	 viewBox="0 0 112 112" style="enable-background:new 0 0 112 112;" xml:space="preserve">
<style type="text/css">
	.st0{fill:#FFFFFF;}
</style>
<g>
	<path class="st0" d="M74.3,26.6h22.4L73.2,2.1v23.3C73.2,26.3,73.8,26.6,74.3,26.6z"/>
	<path class="st0" d="M69.3,25.5V2.1H20.8c-3,0-5.4,2.5-5.5,5.5v97.1c0,2.7,2.5,5.1,5.5,5.1h70.9c2.7,0,5.1-2.4,5.1-5.1V31H74.3
		C71.7,31,69.3,28.5,69.3,25.5z M74.7,72.1L57,97C57,97,57,97,57,97l-0.1,0.1c-0.1,0.1-0.1,0.1-0.1,0.1c-0.1,0-0.1,0-0.1,0
		c0,0.1-0.1,0.1-0.1,0.1c-0.1,0.1-0.3,0.1-0.4,0.1c-0.2,0-0.3,0-0.4-0.1c0-0.1-0.1-0.1-0.1-0.1c-0.1,0-0.1,0-0.1,0
		c-0.1-0.1-0.1-0.1-0.1-0.1L55.4,97c-0.1,0-0.1,0-0.1,0L37.7,72.1c-0.2-0.4-0.2-0.9,0.1-1.2c0.3-0.4,0.8-0.4,1.2-0.2l17.2,10.1
		l17.1-10.2c0.4-0.2,0.9-0.1,1.2,0.2S74.8,71.6,74.7,72.1z M74.5,67.8c0,0.1-0.1,0.2-0.1,0.3v0.1c-0.1,0.1-0.2,0.2-0.3,0.3
		L56.5,78.8c-0.1,0-0.1,0-0.1,0c-0.1,0.1-0.3,0.1-0.4,0.1c-0.1,0-0.3,0-0.4-0.1L37.9,68.3c-0.1-0.1-0.2-0.2-0.3-0.3V68
		c-0.1-0.1-0.1-0.2-0.1-0.3c0-0.1,0-0.1-0.1,0c0-0.1,0-0.3,0.1-0.4l17.8-29.3c0.1,0,0.1-0.1,0.1-0.1l0.1-0.1c0-0.1,0.1-0.1,0.1-0.1
		c0.1,0,0.1,0,0.1,0c0-0.1,0.1-0.1,0.1-0.1h0.1H56c0.1,0,0.1,0,0.1,0c0.1,0,0.1,0,0.1,0h0.1h0.1c0,0.1,0.1,0.1,0.1,0.1
		c0.1,0,0.1,0,0.1,0c0,0.1,0.1,0.1,0.1,0.1l0.1,0.1c0.1,0,0.1,0.1,0.1,0.1l17.5,29.3c0.1,0.1,0.1,0.3,0.1,0.4
		C74.5,67.8,74.5,67.8,74.5,67.8z"/>
</g>
</svg>
