<svg xmlns="http://www.w3.org/2000/svg" width="119.1" height="118.196" fill="#fff"><path d="M0 0h119.1v118.196H0z" fill-opacity="0" pointer-events="none"/><path d="M112.112 54.845L96.432 65.2c.436 1.1.653 2.396.653 3.702a11.09 11.09 0 0 1-1.307 4.573l7.622 6.642 9.147-24.064-.436-1.198zM78.683 73.9l-25.698 8.7v1.2c0 1.85-.653 3.593-1.524 5.118l20.253 17.75 6.316-2.83 5-25.916c-1.742-.98-3.267-2.396-4.356-4.03zm-44.97 12.74l-17.096 1.307 4.03 9.038 15.898 6.098 2.07-10.67c-2.178-1.198-4.03-3.267-4.9-5.77zm27.113-50.197c-.1 1.85-.544 3.593-1.524 5l21.996 19.273c1.633-1.198 3.484-1.85 5.662-1.96l8.058-41.05-2.07-.762-32.45 16.55c.218.98.327 1.96.327 2.94zm-8.602 9.582L46.67 74.228c2.178.762 3.92 2.287 5.118 4.247l25.6-8.602c-.1-.436-.1-.98-.1-1.307 0-1.633.544-3.158 1.198-4.573L56.252 44.6a11.04 11.04 0 0 1-4.03 1.416zm-1.09-19.708c.218 0 .436 0 .653.1L56.36 3.232 29.356 15.2 44.6 28.603c1.742-1.416 4.03-2.287 6.533-2.287zm-8.71 47.366L47.867 45.7c-2.83-.87-5-2.94-6.207-5.662L8.558 46.134l-1.524 3.92L36.652 75.97c1.742-1.307 3.702-2.178 5.77-2.287zm51.722-11.978l16.224-10.78-12.196-27.44-7.078 36.15c1.1.544 2.178 1.198 3.05 2.07zM58.43 29.8l29.182-14.918L60.4 4.43l-4.573 23.193c.98.653 1.85 1.307 2.613 2.178zm-16.443 2.18L25.1 17.17 18.794 20l-8.276 21.56 30.5-5.553c.1-1.524.436-2.83.98-4.03zm-7.73 47.365L5.618 54.3l-1.742 4.682L14.983 83.92l18.5-1.416c0-1.198.218-2.178.762-3.158zm8.71 14.047c-.1 0-.1 0 0 0l-2.287 11.216 19.056 7.296 7.84-3.484L48.52 91.87c-1.633.98-3.484 1.524-5.553 1.524zm44.427-14.81l-4.573 23.084 14.918-6.642 4.03-10.78-8.7-7.622a9.38 9.38 0 0 1-5.662 1.96z" fill-rule="evenodd"/></svg>