<?xml version="1.0" encoding="utf-8"?>
<!-- Generator: Adobe Illustrator 24.0.2, SVG Export Plug-In . SVG Version: 6.00 Build 0)  -->
<svg version="1.1" id="Capa_1" xmlns="http://www.w3.org/2000/svg" xmlns:xlink="http://www.w3.org/1999/xlink" x="0px" y="0px"
	 viewBox="0 0 112 112" style="enable-background:new 0 0 112 112;" xml:space="preserve">
<style type="text/css">
	.st0{fill:#FFFFFF;}
</style>
<g>
	<path class="st0" d="M74.4,26.6h22.4L73.2,2.1v23.3C73.2,26.4,73.8,26.6,74.4,26.6z"/>
	<path class="st0" d="M69.3,25.5V2.1H20.8c-3,0-5.4,2.5-5.5,5.5v97.1c0,2.7,2.5,5.1,5.5,5.1h70.9c2.7,0,5.1-2.4,5.1-5.1V31H74.4
		C71.7,31,69.3,28.5,69.3,25.5z M71.8,46.2l-15.6,7.9c-0.4-0.4-0.9-0.9-1.3-1.2l2.4-12.3L71.8,46.2z M66.2,75.5l-13.6,4.6
		c-0.7-1.1-1.5-1.9-2.7-2.3l2.9-15c0.9-0.1,1.6-0.4,2.1-0.7l11.9,10.3c-0.3,0.8-0.7,1.5-0.7,2.4C66.1,75,66.1,75.3,66.2,75.5z
		 M55,40.1l-2.4,12.3c-0.1-0.1-0.2-0.1-0.3-0.1c-1.3,0-2.5,0.4-3.5,1.3l-8.2-7.1L55,40.1z M35,49l3.4-1.5l9,7.8
		c-0.2,0.5-0.4,1.3-0.5,2.2l-16.2,2.9L35,49z M29.8,62.8l17.6-3.3c0.7,1.5,1.7,2.6,3.3,3l-2.9,14.9c-1.2,0.1-2.2,0.5-2.9,1.2
		L29,64.8L29.8,62.8z M27.1,69.7l1-2.5l15.2,13.3c-0.3,0.5-0.4,1.1-0.4,1.7L33,83L27.1,69.7z M44.6,93.1l-8.5-3.3l-2.2-4.8l9.1-0.7
		c0.4,1.3,1.4,2.4,2.6,3L44.6,93.1z M56.9,97.9L46.7,94l1.2-6c1.1,0,2.1-0.3,2.9-0.8L61,96.1L56.9,97.9z M63.3,95.1l-10.8-9.5
		c0.4-0.8,0.8-1.7,0.8-2.7c0-0.2,0-0.4,0-0.7L67,77.6c0.5,0.9,1.4,1.6,2.3,2.2l-2.6,13.8L63.3,95.1z M77.1,88.9l-7.9,3.5l2.4-12.3
		c1.2,0,2.3-0.3,3-1l4.7,4L77.1,88.9z M85,68l-4.9,12.8l-4-3.5c0.3-0.8,0.5-1.5,0.7-2.4c0-0.7-0.1-1.4-0.3-2l8.4-5.6L85,68z
		 M83.8,65.4l-8.6,5.8c-0.4-0.4-1-0.9-1.7-1.1l3.8-19.3L83.8,65.4z M75.8,47.5l-4.2,21.9c-1.2,0.1-2.2,0.4-3,1.1L56.8,60.3
		c0.4-0.7,0.7-1.6,0.8-2.6c0-0.4-0.1-1-0.1-1.7l17.3-8.8L75.8,47.5z"/>
</g>
</svg>
