<?xml version="1.0" encoding="utf-8"?>
<!-- Generator: Adobe Illustrator 23.1.0, SVG Export Plug-In . SVG Version: 6.00 Build 0)  -->
<svg version="1.1" id="Layer_2" xmlns="http://www.w3.org/2000/svg" xmlns:xlink="http://www.w3.org/1999/xlink" x="0px" y="0px"
	 viewBox="0 0 292.6 105.6" style="enable-background:new 0 0 292.6 105.6;" xml:space="preserve">
<style type="text/css">
	.st0{fill:none;stroke:#FFFFFF;stroke-width:1.5;stroke-miterlimit:10;}
</style>
<g>
	<path class="st0" d="M103.4,50.4L89,59.9c0.4,1,0.6,2.2,0.6,3.4c-0.1,1.5-0.5,2.9-1.2,4.2l7,6.1l8.4-22.1L103.4,50.4z"/>
	<path class="st0" d="M72.7,67.9l-23.6,8c0,0.4,0,0.7,0,1.1c0,1.7-0.6,3.3-1.4,4.7L66.3,98l5.8-2.6l4.6-23.8
		C75.2,70.7,73.7,69.4,72.7,67.9z"/>
	<path class="st0" d="M31.5,79.6l-15.7,1.2l3.7,8.3l14.6,5.6l1.9-9.8C33.9,83.8,32.2,81.9,31.5,79.6z"/>
	<path class="st0" d="M56.3,33.5c-0.1,1.7-0.5,3.3-1.4,4.6l20.2,17.7c1.5-1.1,3.2-1.7,5.2-1.8l7.4-37.7l-1.9-0.7L55.9,30.8
		C56.2,31.7,56.3,32.6,56.3,33.5z"/>
	<path class="st0" d="M48.4,42.3l-5.1,25.9c2,0.7,3.6,2.1,4.7,3.9l23.5-7.9c-0.1-0.4-0.1-0.9-0.1-1.2c0-1.5,0.5-2.9,1.1-4.2
		L52.2,40.9C51.1,41.6,49.8,42.1,48.4,42.3z"/>
	<path class="st0" d="M47.4,24.2c0.2,0,0.4,0,0.6,0.1L52.2,3L27.4,14l14,12.3C43,25,45.1,24.2,47.4,24.2z"/>
	<path class="st0" d="M39.5,67.7l5-25.7c-2.6-0.8-4.6-2.7-5.7-5.2L8.4,42.4L7,46l27.2,23.8C35.7,68.6,37.5,67.8,39.5,67.7z"/>
	<path class="st0" d="M86.9,56.7l14.9-9.9L90.6,21.6l-6.5,33.2C85.2,55.3,86.1,55.9,86.9,56.7z"/>
	<path class="st0" d="M54.1,27.4l26.8-13.7l-25-9.6l-4.2,21.3C52.7,26,53.5,26.6,54.1,27.4z"/>
	<path class="st0" d="M39,29.4L23.5,15.8l-5.8,2.6l-7.6,19.8l28-5.1C38.2,31.7,38.5,30.5,39,29.4z"/>
	<path class="st0" d="M31.9,72.9l-26.3-23L4,54.2l10.2,22.9l17-1.3C31.2,74.7,31.5,73.8,31.9,72.9z"/>
	<path class="st0" d="M39.9,85.8C39.9,85.8,39.8,85.8,39.9,85.8l-2.1,10.3l17.5,6.7l7.2-3.2L45.1,84.3
		C43.5,85.3,41.8,85.8,39.9,85.8z"/>
	<path class="st0" d="M80.7,72.2l-4.2,21.1l13.7-6.1l3.7-9.9l-8-7C84.5,71.5,82.7,72.2,80.7,72.2z"/>
	<path class="st0" d="M284.9,52.5c-0.5-0.3-1-0.5-1.5-0.6c-0.6-0.1-1.2-0.2-1.8-0.2c-2.4,0-4.2,0.8-5.5,2.3
		c-1.3,1.6-1.9,3.8-1.9,6.7v13.5H270V48.5h4.2v4c0.9-1.6,2-2.7,3.5-3.5s3.1-1.1,5.2-1.1c0.3,0,0.6,0,1,0.1c0.4,0,0.7,0.1,1.2,0.2
		L284.9,52.5z"/>
	<g>
		<rect x="221.8" y="38.5" class="st0" width="8.2" height="6.7"/>
		<path class="st0" d="M146.9,44.9c-1.8-1.8-4-3-6.5-3.8c-2.5-0.7-6.4-1.1-11.6-1.1h-9.3v34.2h9.3c5.1,0,9-0.4,11.5-1.1
			c2.6-0.7,4.8-2,6.6-3.8c1.6-1.5,2.8-3.3,3.6-5.3s1.2-4.3,1.2-6.9s-0.4-4.8-1.2-6.8C149.7,48.2,148.5,46.4,146.9,44.9z M139.7,64.8
			c-1.9,1.8-4.7,2.7-8.3,2.7h-3.2V46.6h3.2c3.6,0,6.4,0.9,8.3,2.7c1.9,1.8,2.8,4.4,2.8,7.7C142.5,60.5,141.6,63.1,139.7,64.8z"/>
		<path class="st0" d="M250.4,71c-9.3,0-9.7-7.4-9.7-7.4h3.5h19.2v-2.3c0-4.1-1.2-7.3-3.6-9.7c-2.4-2.4-5.6-3.6-9.7-3.6
			c-4.4,0-7.9,1.2-10.4,3.6s-3.8,5.7-3.8,9.9c0,4.3,1.3,7.6,3.9,9.9c2.6,2.4,6.2,3.5,10.8,3.5c1.9,0,3.9-0.2,5.8-0.6
			c1.9-0.4,3.9-0.9,5.8-1.7v-4.1C259.9,69.6,256,71,250.4,71z M243.8,53.9c1.7-1.5,3.8-2.2,6.5-2.2c2.4,0,4.4,0.8,5.9,2.4
			s2.3,3.7,2.3,6.3h-17.8C241.1,57.5,242.2,55.4,243.8,53.9z"/>
		<rect x="221.8" y="48.5" class="st0" width="8.2" height="25.7"/>
		<polygon class="st0" points="190.1,74.2 198.9,74.2 198.9,59.7 213,59.7 213,53 198.9,53 198.9,46.7 213.9,46.7 213.9,40 
			190.1,40 		"/>
		<path class="st0" d="M170.3,47.9c-4.4,0-7.9,1.2-10.4,3.6s-3.8,5.7-3.8,9.9c0,4.3,1.3,7.6,3.9,9.9c2.6,2.4,6.2,3.5,10.8,3.5
			c1.9,0,3.9-0.2,5.8-0.6c1.9-0.4,3.9-0.9,5.8-1.7v-6.3c-1.9,1-3.8,1.8-5.6,2.3s-3.6,0.8-5.3,0.8c-2.1,0-3.8-0.5-5-1.4
			c-1.2-1-1.9-2.4-2.1-4.3h19.2v-2.3c0-4.1-1.2-7.3-3.6-9.7C177.5,49.1,174.3,47.9,170.3,47.9z M164.5,58.6c0.2-1.7,0.9-3,1.9-3.9
			s2.3-1.3,3.9-1.3c1.5,0,2.7,0.5,3.6,1.4c0.9,1,1.4,2.2,1.4,3.8H164.5z"/>
	</g>
</g>
</svg>
