<svg xmlns="http://www.w3.org/2000/svg" viewBox="0 0 112 112" fill="#fff"><path d="M74.3 26.6h22.4L73.2 2.1v23.3c0 .9.6 1.2 1.1 1.2zm-5-1.1V2.1H20.8c-3 0-5.4 2.5-5.5 5.5v97.1c0 2.7 2.5 5.1 5.5 5.1h70.9c2.7 0 5.1-2.4 5.1-5.1V31H74.3c-2.6 0-5-2.5-5-5.5zm5.4 46.6L57 97l-.2.2h-.1c0 .1-.1.1-.1.1-.1.1-.3.1-.4.1-.2 0-.3 0-.4-.1 0-.1-.1-.1-.1-.1h-.1l-.2-.2h-.1L37.7 72.1c-.2-.4-.2-.9.1-1.2.3-.4.8-.4 1.2-.2l17.2 10.1 17.1-10.2c.4-.2.9-.1 1.2.2s.3.8.2 1.3zm-.2-4.3c0 .1-.1.2-.1.3v.1l-.3.3-17.6 10.3h-.1c-.1.1-.3.1-.4.1s-.3 0-.4-.1L37.9 68.3l-.3-.3c-.1-.1-.1-.2-.1-.3s0-.1-.1 0c0-.1 0-.3.1-.4L55.3 38c.1 0 .1-.1.1-.1l.1-.1c0-.1.1-.1.1-.1h.1c0-.1.1-.1.1-.1h.6c0 .1.1.1.1.1h.1c0 .1.1.1.1.1l.1.1c.1 0 .1.1.1.1l17.5 29.3c.1.1.1.3.1.4v.1z"/></svg>