<svg xmlns="http://www.w3.org/2000/svg" viewBox="0 0 112 112" fill="#fff"><path d="M74.4 26.6h22.4L73.2 2.1v23.3c0 1 .6 1.2 1.2 1.2zm-5.1-1.1V2.1H20.8c-3 0-5.4 2.5-5.5 5.5v97.1c0 2.7 2.5 5.1 5.5 5.1h70.9c2.7 0 5.1-2.4 5.1-5.1V31H74.4c-2.7 0-5.1-2.5-5.1-5.5zm2.5 20.7l-15.6 7.9-1.3-1.2 2.4-12.3 14.5 5.6zm-5.6 29.3l-13.6 4.6c-.7-1.1-1.5-1.9-2.7-2.3l2.9-15c.9-.1 1.6-.4 2.1-.7l11.9 10.3c-.3.8-.7 1.5-.7 2.4 0 .2 0 .5.1.7zM55 40.1l-2.4 12.3c-.1-.1-.2-.1-.3-.1-1.3 0-2.5.4-3.5 1.3l-8.2-7.1L55 40.1zM35 49l3.4-1.5 9 7.8c-.2.5-.4 1.3-.5 2.2l-16.2 2.9L35 49zm-5.2 13.8l17.6-3.3c.7 1.5 1.7 2.6 3.3 3l-2.9 14.9c-1.2.1-2.2.5-2.9 1.2L29 64.8l.8-2zm-2.7 6.9l1-2.5 15.2 13.3c-.3.5-.4 1.1-.4 1.7L33 83l-5.9-13.3zm17.5 23.4l-8.5-3.3-2.2-4.8 9.1-.7c.4 1.3 1.4 2.4 2.6 3l-1 5.8zm12.3 4.8L46.7 94l1.2-6c1.1 0 2.1-.3 2.9-.8L61 96.1l-4.1 1.8zm6.4-2.8l-10.8-9.5c.4-.8.8-1.7.8-2.7v-.7L67 77.6c.5.9 1.4 1.6 2.3 2.2l-2.6 13.8-3.4 1.5zm13.8-6.2l-7.9 3.5 2.4-12.3c1.2 0 2.3-.3 3-1l4.7 4-2.2 5.8zM85 68l-4.9 12.8-4-3.5c.3-.8.5-1.5.7-2.4 0-.7-.1-1.4-.3-2l8.4-5.6.1.7zm-1.2-2.6l-8.6 5.8c-.4-.4-1-.9-1.7-1.1l3.8-19.3 6.5 14.6zm-8-17.9l-4.2 21.9c-1.2.1-2.2.4-3 1.1L56.8 60.3c.4-.7.7-1.6.8-2.6 0-.4-.1-1-.1-1.7l17.3-8.8 1 .3z"/></svg>